<mxfile host="65bd71144e">
    <diagram id="IOgc56f6-4-02vyrJCaK" name="第 1 页">
        <mxGraphModel dx="1049" dy="810" grid="1" gridSize="10" guides="1" tooltips="1" connect="1" arrows="1" fold="1" page="1" pageScale="1" pageWidth="827" pageHeight="1169" math="0" shadow="0">
            <root>
                <mxCell id="0"/>
                <mxCell id="1" parent="0"/>
                <mxCell id="9vQ8N4bsAvjY2NHO2pij-84" style="edgeStyle=none;rounded=0;orthogonalLoop=1;jettySize=auto;html=1;exitX=1;exitY=1;exitDx=0;exitDy=0;entryX=0.5;entryY=0.5;entryDx=0;entryDy=0;entryPerimeter=0;fontSize=20;" parent="1" source="9vQ8N4bsAvjY2NHO2pij-57" target="9vQ8N4bsAvjY2NHO2pij-56" edge="1">
                    <mxGeometry relative="1" as="geometry"/>
                </mxCell>
                <mxCell id="9vQ8N4bsAvjY2NHO2pij-38" style="edgeStyle=none;rounded=0;orthogonalLoop=1;jettySize=auto;html=1;exitX=0.5;exitY=1;exitDx=0;exitDy=0;entryX=0.5;entryY=0.5;entryDx=0;entryDy=0;entryPerimeter=0;fontSize=20;" parent="1" source="9vQ8N4bsAvjY2NHO2pij-37" target="9vQ8N4bsAvjY2NHO2pij-18" edge="1">
                    <mxGeometry relative="1" as="geometry"/>
                </mxCell>
                <mxCell id="9vQ8N4bsAvjY2NHO2pij-8" style="rounded=0;orthogonalLoop=1;jettySize=auto;html=1;entryX=0.5;entryY=0.5;entryDx=0;entryDy=0;entryPerimeter=0;fontSize=20;" parent="1" source="9vQ8N4bsAvjY2NHO2pij-2" target="9vQ8N4bsAvjY2NHO2pij-4" edge="1">
                    <mxGeometry relative="1" as="geometry"/>
                </mxCell>
                <mxCell id="9vQ8N4bsAvjY2NHO2pij-11" style="rounded=0;orthogonalLoop=1;jettySize=auto;html=1;exitX=0;exitY=1;exitDx=0;exitDy=0;entryX=0.5;entryY=0.5;entryDx=0;entryDy=0;entryPerimeter=0;fontSize=20;" parent="1" source="9vQ8N4bsAvjY2NHO2pij-2" target="9vQ8N4bsAvjY2NHO2pij-3" edge="1">
                    <mxGeometry relative="1" as="geometry"/>
                </mxCell>
                <mxCell id="9vQ8N4bsAvjY2NHO2pij-12" style="edgeStyle=none;rounded=0;orthogonalLoop=1;jettySize=auto;html=1;exitX=1;exitY=1;exitDx=0;exitDy=0;entryX=0.5;entryY=0.5;entryDx=0;entryDy=0;entryPerimeter=0;fontSize=20;" parent="1" source="9vQ8N4bsAvjY2NHO2pij-2" target="9vQ8N4bsAvjY2NHO2pij-5" edge="1">
                    <mxGeometry relative="1" as="geometry"/>
                </mxCell>
                <mxCell id="9vQ8N4bsAvjY2NHO2pij-2" value="a" style="ellipse;whiteSpace=wrap;html=1;aspect=fixed;fontSize=20;" parent="1" vertex="1">
                    <mxGeometry x="60" y="160" width="40" height="40" as="geometry"/>
                </mxCell>
                <mxCell id="9vQ8N4bsAvjY2NHO2pij-14" style="edgeStyle=none;rounded=0;orthogonalLoop=1;jettySize=auto;html=1;exitX=0.5;exitY=1;exitDx=0;exitDy=0;entryX=0.505;entryY=0.5;entryDx=0;entryDy=0;entryPerimeter=0;fontSize=20;" parent="1" source="9vQ8N4bsAvjY2NHO2pij-3" target="9vQ8N4bsAvjY2NHO2pij-6" edge="1">
                    <mxGeometry relative="1" as="geometry"/>
                </mxCell>
                <mxCell id="9vQ8N4bsAvjY2NHO2pij-3" value="b" style="ellipse;whiteSpace=wrap;html=1;aspect=fixed;fontSize=20;" parent="1" vertex="1">
                    <mxGeometry y="220" width="40" height="40" as="geometry"/>
                </mxCell>
                <mxCell id="9vQ8N4bsAvjY2NHO2pij-13" style="edgeStyle=none;rounded=0;orthogonalLoop=1;jettySize=auto;html=1;entryX=0.5;entryY=0.5;entryDx=0;entryDy=0;entryPerimeter=0;fontSize=20;" parent="1" source="9vQ8N4bsAvjY2NHO2pij-4" target="9vQ8N4bsAvjY2NHO2pij-7" edge="1">
                    <mxGeometry relative="1" as="geometry"/>
                </mxCell>
                <mxCell id="9vQ8N4bsAvjY2NHO2pij-4" value="c" style="ellipse;whiteSpace=wrap;html=1;aspect=fixed;fontSize=20;" parent="1" vertex="1">
                    <mxGeometry x="60" y="220" width="40" height="40" as="geometry"/>
                </mxCell>
                <mxCell id="9vQ8N4bsAvjY2NHO2pij-5" value="d" style="ellipse;whiteSpace=wrap;html=1;aspect=fixed;fontSize=20;" parent="1" vertex="1">
                    <mxGeometry x="120" y="220" width="40" height="40" as="geometry"/>
                </mxCell>
                <mxCell id="9vQ8N4bsAvjY2NHO2pij-6" value="e" style="ellipse;whiteSpace=wrap;html=1;aspect=fixed;fontSize=20;" parent="1" vertex="1">
                    <mxGeometry y="280" width="40" height="40" as="geometry"/>
                </mxCell>
                <mxCell id="9vQ8N4bsAvjY2NHO2pij-7" value="f" style="ellipse;whiteSpace=wrap;html=1;aspect=fixed;fontSize=20;" parent="1" vertex="1">
                    <mxGeometry x="60" y="280" width="40" height="40" as="geometry"/>
                </mxCell>
                <mxCell id="9vQ8N4bsAvjY2NHO2pij-15" style="rounded=0;orthogonalLoop=1;jettySize=auto;html=1;entryX=0.5;entryY=0.5;entryDx=0;entryDy=0;entryPerimeter=0;fontSize=20;" parent="1" source="9vQ8N4bsAvjY2NHO2pij-18" target="9vQ8N4bsAvjY2NHO2pij-22" edge="1">
                    <mxGeometry relative="1" as="geometry"/>
                </mxCell>
                <mxCell id="9vQ8N4bsAvjY2NHO2pij-16" style="rounded=0;orthogonalLoop=1;jettySize=auto;html=1;exitX=0;exitY=1;exitDx=0;exitDy=0;entryX=0.5;entryY=0.5;entryDx=0;entryDy=0;entryPerimeter=0;fontSize=20;" parent="1" source="9vQ8N4bsAvjY2NHO2pij-18" target="9vQ8N4bsAvjY2NHO2pij-20" edge="1">
                    <mxGeometry relative="1" as="geometry"/>
                </mxCell>
                <mxCell id="9vQ8N4bsAvjY2NHO2pij-17" style="edgeStyle=none;rounded=0;orthogonalLoop=1;jettySize=auto;html=1;exitX=1;exitY=1;exitDx=0;exitDy=0;entryX=0.5;entryY=0.5;entryDx=0;entryDy=0;entryPerimeter=0;fontSize=20;" parent="1" source="9vQ8N4bsAvjY2NHO2pij-18" target="9vQ8N4bsAvjY2NHO2pij-23" edge="1">
                    <mxGeometry relative="1" as="geometry"/>
                </mxCell>
                <mxCell id="9vQ8N4bsAvjY2NHO2pij-18" value="h" style="ellipse;whiteSpace=wrap;html=1;aspect=fixed;fontSize=20;" parent="1" vertex="1">
                    <mxGeometry x="240" y="220" width="40" height="40" as="geometry"/>
                </mxCell>
                <mxCell id="9vQ8N4bsAvjY2NHO2pij-20" value="i" style="ellipse;whiteSpace=wrap;html=1;aspect=fixed;fontSize=20;" parent="1" vertex="1">
                    <mxGeometry x="180" y="280" width="40" height="40" as="geometry"/>
                </mxCell>
                <mxCell id="9vQ8N4bsAvjY2NHO2pij-22" value="j" style="ellipse;whiteSpace=wrap;html=1;aspect=fixed;fontSize=20;" parent="1" vertex="1">
                    <mxGeometry x="240" y="280" width="40" height="40" as="geometry"/>
                </mxCell>
                <mxCell id="9vQ8N4bsAvjY2NHO2pij-23" value="k" style="ellipse;whiteSpace=wrap;html=1;aspect=fixed;fontSize=20;" parent="1" vertex="1">
                    <mxGeometry x="300" y="280" width="40" height="40" as="geometry"/>
                </mxCell>
                <mxCell id="9vQ8N4bsAvjY2NHO2pij-26" style="rounded=0;orthogonalLoop=1;jettySize=auto;html=1;entryX=0.5;entryY=0.5;entryDx=0;entryDy=0;entryPerimeter=0;fontSize=20;" parent="1" source="9vQ8N4bsAvjY2NHO2pij-29" target="9vQ8N4bsAvjY2NHO2pij-33" edge="1">
                    <mxGeometry relative="1" as="geometry"/>
                </mxCell>
                <mxCell id="9vQ8N4bsAvjY2NHO2pij-27" style="rounded=0;orthogonalLoop=1;jettySize=auto;html=1;exitX=0;exitY=1;exitDx=0;exitDy=0;entryX=0.5;entryY=0.5;entryDx=0;entryDy=0;entryPerimeter=0;fontSize=20;" parent="1" source="9vQ8N4bsAvjY2NHO2pij-29" target="9vQ8N4bsAvjY2NHO2pij-31" edge="1">
                    <mxGeometry relative="1" as="geometry"/>
                </mxCell>
                <mxCell id="9vQ8N4bsAvjY2NHO2pij-28" style="edgeStyle=none;rounded=0;orthogonalLoop=1;jettySize=auto;html=1;exitX=1;exitY=1;exitDx=0;exitDy=0;entryX=0.5;entryY=0.5;entryDx=0;entryDy=0;entryPerimeter=0;fontSize=20;" parent="1" source="9vQ8N4bsAvjY2NHO2pij-29" target="9vQ8N4bsAvjY2NHO2pij-34" edge="1">
                    <mxGeometry relative="1" as="geometry"/>
                </mxCell>
                <mxCell id="9vQ8N4bsAvjY2NHO2pij-29" value="l" style="ellipse;whiteSpace=wrap;html=1;aspect=fixed;fontSize=20;" parent="1" vertex="1">
                    <mxGeometry x="420" y="160" width="40" height="40" as="geometry"/>
                </mxCell>
                <mxCell id="9vQ8N4bsAvjY2NHO2pij-30" style="edgeStyle=none;rounded=0;orthogonalLoop=1;jettySize=auto;html=1;exitX=0.5;exitY=1;exitDx=0;exitDy=0;entryX=0.505;entryY=0.5;entryDx=0;entryDy=0;entryPerimeter=0;fontSize=20;" parent="1" source="9vQ8N4bsAvjY2NHO2pij-31" target="9vQ8N4bsAvjY2NHO2pij-35" edge="1">
                    <mxGeometry relative="1" as="geometry"/>
                </mxCell>
                <mxCell id="9vQ8N4bsAvjY2NHO2pij-31" value="m" style="ellipse;whiteSpace=wrap;html=1;aspect=fixed;fontSize=20;" parent="1" vertex="1">
                    <mxGeometry x="360" y="220" width="40" height="40" as="geometry"/>
                </mxCell>
                <mxCell id="9vQ8N4bsAvjY2NHO2pij-33" value="n" style="ellipse;whiteSpace=wrap;html=1;aspect=fixed;fontSize=20;" parent="1" vertex="1">
                    <mxGeometry x="420" y="220" width="40" height="40" as="geometry"/>
                </mxCell>
                <mxCell id="9vQ8N4bsAvjY2NHO2pij-34" value="o" style="ellipse;whiteSpace=wrap;html=1;aspect=fixed;fontSize=20;" parent="1" vertex="1">
                    <mxGeometry x="480" y="220" width="40" height="40" as="geometry"/>
                </mxCell>
                <mxCell id="9vQ8N4bsAvjY2NHO2pij-35" value="p" style="ellipse;whiteSpace=wrap;html=1;aspect=fixed;fontSize=20;" parent="1" vertex="1">
                    <mxGeometry x="360" y="280" width="40" height="40" as="geometry"/>
                </mxCell>
                <mxCell id="9vQ8N4bsAvjY2NHO2pij-37" value="g" style="ellipse;whiteSpace=wrap;html=1;aspect=fixed;fontSize=20;" parent="1" vertex="1">
                    <mxGeometry x="240" y="160" width="40" height="40" as="geometry"/>
                </mxCell>
                <mxCell id="9vQ8N4bsAvjY2NHO2pij-39" value="T1" style="text;html=1;align=center;verticalAlign=middle;resizable=0;points=[];autosize=1;strokeColor=none;fillColor=none;fontSize=20;" parent="1" vertex="1">
                    <mxGeometry y="160" width="40" height="30" as="geometry"/>
                </mxCell>
                <mxCell id="9vQ8N4bsAvjY2NHO2pij-40" value="T2" style="text;html=1;align=center;verticalAlign=middle;resizable=0;points=[];autosize=1;strokeColor=none;fillColor=none;fontSize=20;" parent="1" vertex="1">
                    <mxGeometry x="180" y="160" width="40" height="30" as="geometry"/>
                </mxCell>
                <mxCell id="9vQ8N4bsAvjY2NHO2pij-41" value="T3" style="text;html=1;align=center;verticalAlign=middle;resizable=0;points=[];autosize=1;strokeColor=none;fillColor=none;fontSize=20;" parent="1" vertex="1">
                    <mxGeometry x="360" y="160" width="40" height="30" as="geometry"/>
                </mxCell>
                <mxCell id="9vQ8N4bsAvjY2NHO2pij-79" style="edgeStyle=none;rounded=0;orthogonalLoop=1;jettySize=auto;html=1;exitX=0;exitY=1;exitDx=0;exitDy=0;entryX=0.5;entryY=0.5;entryDx=0;entryDy=0;entryPerimeter=0;fontSize=20;" parent="1" source="9vQ8N4bsAvjY2NHO2pij-43" target="9vQ8N4bsAvjY2NHO2pij-44" edge="1">
                    <mxGeometry relative="1" as="geometry"/>
                </mxCell>
                <mxCell id="9vQ8N4bsAvjY2NHO2pij-80" style="edgeStyle=none;rounded=0;orthogonalLoop=1;jettySize=auto;html=1;exitX=1;exitY=1;exitDx=0;exitDy=0;entryX=0.5;entryY=0.5;entryDx=0;entryDy=0;entryPerimeter=0;fontSize=20;" parent="1" source="9vQ8N4bsAvjY2NHO2pij-43" target="9vQ8N4bsAvjY2NHO2pij-45" edge="1">
                    <mxGeometry relative="1" as="geometry"/>
                </mxCell>
                <mxCell id="9vQ8N4bsAvjY2NHO2pij-43" value="a" style="ellipse;whiteSpace=wrap;html=1;aspect=fixed;fontSize=20;" parent="1" vertex="1">
                    <mxGeometry x="660" y="160" width="40" height="40" as="geometry"/>
                </mxCell>
                <mxCell id="9vQ8N4bsAvjY2NHO2pij-50" style="edgeStyle=none;rounded=0;orthogonalLoop=1;jettySize=auto;html=1;exitX=0;exitY=1;exitDx=0;exitDy=0;entryX=0.5;entryY=0.5;entryDx=0;entryDy=0;entryPerimeter=0;fontSize=20;" parent="1" source="9vQ8N4bsAvjY2NHO2pij-44" target="9vQ8N4bsAvjY2NHO2pij-46" edge="1">
                    <mxGeometry relative="1" as="geometry"/>
                </mxCell>
                <mxCell id="9vQ8N4bsAvjY2NHO2pij-51" style="edgeStyle=none;rounded=0;orthogonalLoop=1;jettySize=auto;html=1;exitX=1;exitY=1;exitDx=0;exitDy=0;entryX=0.5;entryY=0.5;entryDx=0;entryDy=0;entryPerimeter=0;fontSize=20;" parent="1" source="9vQ8N4bsAvjY2NHO2pij-44" target="9vQ8N4bsAvjY2NHO2pij-47" edge="1">
                    <mxGeometry relative="1" as="geometry"/>
                </mxCell>
                <mxCell id="9vQ8N4bsAvjY2NHO2pij-44" value="b" style="ellipse;whiteSpace=wrap;html=1;aspect=fixed;fontSize=20;" parent="1" vertex="1">
                    <mxGeometry x="560" y="230" width="40" height="40" as="geometry"/>
                </mxCell>
                <mxCell id="9vQ8N4bsAvjY2NHO2pij-58" style="edgeStyle=none;rounded=0;orthogonalLoop=1;jettySize=auto;html=1;exitX=0;exitY=1;exitDx=0;exitDy=0;entryX=0.5;entryY=0.5;entryDx=0;entryDy=0;entryPerimeter=0;fontSize=20;" parent="1" source="9vQ8N4bsAvjY2NHO2pij-45" target="9vQ8N4bsAvjY2NHO2pij-54" edge="1">
                    <mxGeometry relative="1" as="geometry"/>
                </mxCell>
                <mxCell id="9vQ8N4bsAvjY2NHO2pij-75" style="edgeStyle=none;rounded=0;orthogonalLoop=1;jettySize=auto;html=1;exitX=1;exitY=1;exitDx=0;exitDy=0;entryX=0.5;entryY=0.5;entryDx=0;entryDy=0;entryPerimeter=0;fontSize=20;" parent="1" source="9vQ8N4bsAvjY2NHO2pij-45" target="9vQ8N4bsAvjY2NHO2pij-64" edge="1">
                    <mxGeometry relative="1" as="geometry"/>
                </mxCell>
                <mxCell id="9vQ8N4bsAvjY2NHO2pij-45" value="g" style="ellipse;whiteSpace=wrap;html=1;aspect=fixed;fontSize=20;" parent="1" vertex="1">
                    <mxGeometry x="770" y="230" width="40" height="40" as="geometry"/>
                </mxCell>
                <mxCell id="9vQ8N4bsAvjY2NHO2pij-46" value="e" style="ellipse;whiteSpace=wrap;html=1;aspect=fixed;fontSize=20;" parent="1" vertex="1">
                    <mxGeometry x="530" y="300" width="40" height="40" as="geometry"/>
                </mxCell>
                <mxCell id="9vQ8N4bsAvjY2NHO2pij-52" style="edgeStyle=none;rounded=0;orthogonalLoop=1;jettySize=auto;html=1;exitX=1;exitY=1;exitDx=0;exitDy=0;entryX=0.5;entryY=0.5;entryDx=0;entryDy=0;entryPerimeter=0;fontSize=20;" parent="1" source="9vQ8N4bsAvjY2NHO2pij-47" target="9vQ8N4bsAvjY2NHO2pij-49" edge="1">
                    <mxGeometry relative="1" as="geometry"/>
                </mxCell>
                <mxCell id="9vQ8N4bsAvjY2NHO2pij-53" style="edgeStyle=none;rounded=0;orthogonalLoop=1;jettySize=auto;html=1;exitX=0;exitY=1;exitDx=0;exitDy=0;entryX=0.5;entryY=0.5;entryDx=0;entryDy=0;entryPerimeter=0;fontSize=20;" parent="1" source="9vQ8N4bsAvjY2NHO2pij-47" target="9vQ8N4bsAvjY2NHO2pij-48" edge="1">
                    <mxGeometry relative="1" as="geometry"/>
                </mxCell>
                <mxCell id="9vQ8N4bsAvjY2NHO2pij-47" value="c" style="ellipse;whiteSpace=wrap;html=1;aspect=fixed;fontSize=20;" parent="1" vertex="1">
                    <mxGeometry x="590" y="300" width="40" height="40" as="geometry"/>
                </mxCell>
                <mxCell id="9vQ8N4bsAvjY2NHO2pij-48" value="f" style="ellipse;whiteSpace=wrap;html=1;aspect=fixed;fontSize=20;" parent="1" vertex="1">
                    <mxGeometry x="560" y="370" width="40" height="40" as="geometry"/>
                </mxCell>
                <mxCell id="9vQ8N4bsAvjY2NHO2pij-49" value="d" style="ellipse;whiteSpace=wrap;html=1;aspect=fixed;fontSize=20;" parent="1" vertex="1">
                    <mxGeometry x="620" y="370" width="40" height="40" as="geometry"/>
                </mxCell>
                <mxCell id="9vQ8N4bsAvjY2NHO2pij-59" style="edgeStyle=none;rounded=0;orthogonalLoop=1;jettySize=auto;html=1;exitX=0;exitY=1;exitDx=0;exitDy=0;entryX=0.5;entryY=0.5;entryDx=0;entryDy=0;entryPerimeter=0;fontSize=20;" parent="1" source="9vQ8N4bsAvjY2NHO2pij-54" target="9vQ8N4bsAvjY2NHO2pij-55" edge="1">
                    <mxGeometry relative="1" as="geometry"/>
                </mxCell>
                <mxCell id="9vQ8N4bsAvjY2NHO2pij-54" value="h" style="ellipse;whiteSpace=wrap;html=1;aspect=fixed;fontSize=20;" parent="1" vertex="1">
                    <mxGeometry x="700" y="300" width="40" height="40" as="geometry"/>
                </mxCell>
                <mxCell id="9vQ8N4bsAvjY2NHO2pij-60" style="edgeStyle=none;rounded=0;orthogonalLoop=1;jettySize=auto;html=1;exitX=1;exitY=1;exitDx=0;exitDy=0;entryX=0.5;entryY=0.5;entryDx=0;entryDy=0;entryPerimeter=0;fontSize=20;" parent="1" source="9vQ8N4bsAvjY2NHO2pij-55" target="9vQ8N4bsAvjY2NHO2pij-57" edge="1">
                    <mxGeometry relative="1" as="geometry"/>
                </mxCell>
                <mxCell id="9vQ8N4bsAvjY2NHO2pij-55" value="i" style="ellipse;whiteSpace=wrap;html=1;aspect=fixed;fontSize=20;" parent="1" vertex="1">
                    <mxGeometry x="670" y="370" width="40" height="40" as="geometry"/>
                </mxCell>
                <mxCell id="9vQ8N4bsAvjY2NHO2pij-56" value="k" style="ellipse;whiteSpace=wrap;html=1;aspect=fixed;fontSize=20;" parent="1" vertex="1">
                    <mxGeometry x="730" y="490" width="40" height="40" as="geometry"/>
                </mxCell>
                <mxCell id="9vQ8N4bsAvjY2NHO2pij-57" value="j" style="ellipse;whiteSpace=wrap;html=1;aspect=fixed;fontSize=20;" parent="1" vertex="1">
                    <mxGeometry x="700" y="430" width="40" height="40" as="geometry"/>
                </mxCell>
                <mxCell id="9vQ8N4bsAvjY2NHO2pij-63" style="edgeStyle=none;rounded=0;orthogonalLoop=1;jettySize=auto;html=1;exitX=0;exitY=1;exitDx=0;exitDy=0;entryX=0.5;entryY=0.5;entryDx=0;entryDy=0;entryPerimeter=0;fontSize=20;" parent="1" source="9vQ8N4bsAvjY2NHO2pij-64" target="9vQ8N4bsAvjY2NHO2pij-66" edge="1">
                    <mxGeometry relative="1" as="geometry"/>
                </mxCell>
                <mxCell id="9vQ8N4bsAvjY2NHO2pij-64" value="l" style="ellipse;whiteSpace=wrap;html=1;aspect=fixed;fontSize=20;" parent="1" vertex="1">
                    <mxGeometry x="840" y="300" width="40" height="40" as="geometry"/>
                </mxCell>
                <mxCell id="9vQ8N4bsAvjY2NHO2pij-65" style="edgeStyle=none;rounded=0;orthogonalLoop=1;jettySize=auto;html=1;exitX=0;exitY=1;exitDx=0;exitDy=0;entryX=0.5;entryY=0.5;entryDx=0;entryDy=0;entryPerimeter=0;fontSize=20;" parent="1" source="9vQ8N4bsAvjY2NHO2pij-66" target="9vQ8N4bsAvjY2NHO2pij-68" edge="1">
                    <mxGeometry relative="1" as="geometry"/>
                </mxCell>
                <mxCell id="9vQ8N4bsAvjY2NHO2pij-73" style="edgeStyle=none;rounded=0;orthogonalLoop=1;jettySize=auto;html=1;exitX=1;exitY=1;exitDx=0;exitDy=0;entryX=0.5;entryY=0.5;entryDx=0;entryDy=0;entryPerimeter=0;fontSize=20;" parent="1" source="9vQ8N4bsAvjY2NHO2pij-66" target="9vQ8N4bsAvjY2NHO2pij-71" edge="1">
                    <mxGeometry relative="1" as="geometry"/>
                </mxCell>
                <mxCell id="9vQ8N4bsAvjY2NHO2pij-66" value="m" style="ellipse;whiteSpace=wrap;html=1;aspect=fixed;fontSize=20;" parent="1" vertex="1">
                    <mxGeometry x="810" y="370" width="40" height="40" as="geometry"/>
                </mxCell>
                <mxCell id="9vQ8N4bsAvjY2NHO2pij-68" value="p" style="ellipse;whiteSpace=wrap;html=1;aspect=fixed;fontSize=20;" parent="1" vertex="1">
                    <mxGeometry x="770" y="430" width="40" height="40" as="geometry"/>
                </mxCell>
                <mxCell id="9vQ8N4bsAvjY2NHO2pij-74" style="edgeStyle=none;rounded=0;orthogonalLoop=1;jettySize=auto;html=1;exitX=1;exitY=1;exitDx=0;exitDy=0;entryX=0.5;entryY=0.5;entryDx=0;entryDy=0;entryPerimeter=0;fontSize=20;" parent="1" source="9vQ8N4bsAvjY2NHO2pij-71" target="9vQ8N4bsAvjY2NHO2pij-72" edge="1">
                    <mxGeometry relative="1" as="geometry"/>
                </mxCell>
                <mxCell id="9vQ8N4bsAvjY2NHO2pij-71" value="n" style="ellipse;whiteSpace=wrap;html=1;aspect=fixed;fontSize=20;" parent="1" vertex="1">
                    <mxGeometry x="850" y="430" width="40" height="40" as="geometry"/>
                </mxCell>
                <mxCell id="9vQ8N4bsAvjY2NHO2pij-72" value="o" style="ellipse;whiteSpace=wrap;html=1;aspect=fixed;fontSize=20;" parent="1" vertex="1">
                    <mxGeometry x="890" y="490" width="40" height="40" as="geometry"/>
                </mxCell>
                <mxCell id="9vQ8N4bsAvjY2NHO2pij-81" value="BT" style="text;html=1;align=center;verticalAlign=middle;resizable=0;points=[];autosize=1;strokeColor=none;fillColor=none;fontSize=20;" parent="1" vertex="1">
                    <mxGeometry x="600" y="160" width="40" height="30" as="geometry"/>
                </mxCell>
            </root>
        </mxGraphModel>
    </diagram>
</mxfile>